<?xml version="1.0" encoding="UTF-8" standalone="no"?>
<!DOCTYPE svg PUBLIC "-//W3C//DTD SVG 1.1//EN" "http://www.w3.org/Graphics/SVG/1.1/DTD/svg11.dtd">
<svg width="100%" height="100%" viewBox="0 0 1024 1024" version="1.1" xmlns="http://www.w3.org/2000/svg" xmlns:xlink="http://www.w3.org/1999/xlink" xml:space="preserve" xmlns:serif="http://www.serif.com/" style="fill-rule:evenodd;clip-rule:evenodd;stroke-linejoin:round;stroke-miterlimit:2;">
    <path d="M448.836,832.527L396.194,832.527C244.351,807.66 128.113,675.439 128.113,516.557C128.113,463.344 141.782,413.528 164.85,369.366L204.123,423.777C232.699,463.39 294.349,452.346 307.442,405.29L338.72,292.812L381.863,137.69C392.209,100.499 364.24,63.711 325.677,63.773L173.587,63.984L58.399,64.152C10.939,64.228 -16.516,118.03 11.278,156.541L83.534,256.701C31.188,330.002 0.151,419.56 0.151,516.557C0.151,740.643 164.472,926.332 379.09,959.501C384.957,960.404 390.639,960.173 396.193,959.449L396.193,960.224L448.834,960.224C483.714,960.224 512.002,931.923 512.002,897.018L512.002,895.73C512.003,860.828 483.716,832.527 448.836,832.527ZM1012.73,867.458L940.465,767.316C992.813,694.003 1023.85,604.431 1023.85,507.447C1023.85,283.362 859.541,97.665 644.911,64.49C639.05,63.586 633.361,63.823 627.807,64.56L627.807,63.772L575.171,63.772C540.285,63.772 512.003,92.066 512.003,126.983L512.003,128.264C512.003,163.181 540.284,191.489 575.171,191.489L627.807,191.489C779.65,216.343 895.894,348.571 895.894,507.446C895.894,560.647 882.219,610.47 859.158,654.638L819.89,600.201C791.308,560.613 729.653,571.644 716.565,618.708L685.287,731.18L642.138,886.327C631.793,923.5 659.761,960.282 698.324,960.224L850.416,960.019L965.609,959.846C1013.07,959.777 1040.52,905.964 1012.73,867.458Z" style="fill:rgb(243,148,32);fill-rule:nonzero;"/>
</svg>
